<svg width="200" height="200" viewBox="0 0 200 200" fill="none" xmlns="http://www.w3.org/2000/svg">
<path d="M77.0312 25.4687C95.7812 25.4687 110.938 40.625 110.938 59.375C110.938 78.125 95.7812 93.4375 77.0312 93.4375C58.2812 93.4375 43.125 78.2812 43.125 59.5312C43.125 40.7812 58.2812 25.4687 77.0312 25.4687ZM173.281 168.438H130.781L150.625 134.219C154.688 127.031 152.188 117.969 145.156 113.906C138.125 109.844 129.062 112.344 125 119.375L105.156 153.594L75.625 102.969C72.8125 97.6562 67.1875 95 60.1563 95C59.2188 95 57.1875 95.3125 56.0938 95.625C55.1563 95.7812 53.75 96.25 52.6563 96.5625C24.2188 105.938 1.71875 151.406 1.71875 198.438C2.5 198.438 70 198.438 87.1875 198.438C86.5625 197.5 85.9375 196.719 85.3125 195.781L51.0938 136.719C50 134.688 50.7813 132.031 52.6563 130.938C54.6875 129.844 57.3438 130.625 58.4375 132.5L92.3438 191.094C94.8438 195.469 99.5312 198.438 105 198.438H173.281C181.562 198.438 188.125 191.719 188.125 183.594C188.281 175 181.406 168.438 173.281 168.438ZM162.641 1.5625C142.836 1.5625 126.953 17.6562 126.953 37.4609C126.953 57.1641 142.945 73.1562 162.641 73.1562C182.344 73.1562 198.438 57.1641 198.438 37.3594C198.438 17.5547 182.445 1.5625 162.641 1.5625ZM176.633 31.5469L174.867 35.8516H146.883C146.844 36.3516 146.828 36.8594 146.828 37.3672C146.828 37.875 146.844 38.375 146.883 38.8828H173.617L171.852 43.1875H147.789C148.961 46.6016 151.164 49.6328 154.07 51.8047C157.195 54.1328 160.898 55.3594 164.805 55.3594C170.117 55.3438 175.117 53.0078 178.555 48.9453L179.109 48.2812V54.4219L179 54.5078C175.031 57.7969 169.984 59.625 164.82 59.625C154.742 59.625 145.922 52.8672 143.305 43.1484H136.93L138.695 38.8516H142.586C142.547 38.3438 142.531 37.8359 142.531 37.3281C142.531 36.8281 142.547 36.3203 142.586 35.8125H136.984L138.828 31.5156H143.289C145.867 21.9766 154.578 15.2188 164.516 15.0938H164.805C170.75 15.0938 176.328 17.4062 180.539 21.5938L180.68 21.7422L178.859 26.1484L178.516 25.75C175.086 21.7031 170.078 19.375 164.781 19.375H164.461C156.875 19.5156 150.227 24.375 147.789 31.5469H176.633Z" fill="#C5021C"/>
</svg>
