<svg width="200" height="200" viewBox="0 0 200 200" fill="none" xmlns="http://www.w3.org/2000/svg">
<g clip-path="url(#clip0_169_3441)">
<path d="M174.91 13.1457C160.697 10.9715 147.321 19.3269 142.649 32.3754H125.447V47.1797H141.424C143.46 59.4343 153.023 69.584 165.977 71.5687C182.101 74.0359 197.181 62.9586 199.657 46.8261C202.12 30.6933 191.043 15.6129 174.91 13.1457Z" fill="#C5021C"/>
<path d="M63.5215 132.118C63.5215 129.43 61.343 127.248 58.6512 127.248H37.5625C34.8707 127.248 32.6926 129.43 32.6926 132.118C32.6926 134.801 34.8707 136.988 37.5625 136.988H58.6515C61.343 136.988 63.5215 134.801 63.5215 132.118Z" fill="black"/>
<path d="M153.515 92.9549L111.044 132.989L96.2137 136.66V102.824H0V187.198H96.2137V163.974L110.099 161.735C116.72 160.79 121.582 159.12 127.418 155.868L145.505 146.404V187.198H197.237V105.792C197.237 79.1474 167.194 79.074 153.515 92.9549ZM84.3734 175.356H11.841V114.665H84.3734V139.589L70.1473 143.108C63.9098 144.825 60.1051 151.123 61.4855 157.443L61.602 157.93C62.9606 164.145 68.8875 168.256 75.1898 167.36L84.3734 165.88V175.356Z" fill="#C5021C"/>
</g>
<defs>
<clipPath id="clip0_169_3441">
<rect width="200" height="200" fill="white"/>
</clipPath>
</defs>
</svg>
