<svg width="200" height="200" viewBox="0 0 200 200" fill="none" xmlns="http://www.w3.org/2000/svg">
<g clip-path="url(#clip0_169_3453)">
<path d="M186.441 93.2202H145.763V140.678H196.61C198.482 140.678 200 139.16 200 137.288V106.78C200 99.2909 193.929 93.2202 186.441 93.2202Z" fill="#C7CFE2"/>
<path d="M145.763 100H186.441C190.186 100 193.221 103.035 193.221 106.78V140.678H145.763V100Z" fill="#AFB9D2"/>
<path d="M192.951 140.678C191.302 129.183 181.442 120.339 169.491 120.339C157.541 120.339 147.681 129.183 146.032 140.678H192.951Z" fill="#959CB5"/>
<path d="M172.881 52.542H145.762V66.1014H181.356C182.292 66.1014 183.051 65.3424 183.051 64.4064V62.7115C183.051 57.0951 178.498 52.542 172.881 52.542Z" fill="#C7CFE2"/>
<path d="M142.373 38.9834H20.339C18.4672 38.9834 16.9492 40.5014 16.9492 42.3732V110.17H10.1695C8.29568 110.17 6.77966 111.688 6.77966 113.56C6.77966 115.431 8.29568 116.949 10.1695 116.949H30.5086C32.3824 116.949 33.8984 118.467 33.8984 120.339C33.8984 122.211 32.3824 123.729 30.5086 123.729H16.9492V137.288C16.9492 139.16 18.4672 140.678 20.339 140.678H145.763V42.3732C145.763 40.501 144.245 38.9834 142.373 38.9834Z" fill="#C5021C"/>
<path d="M81.3559 113.559C98.2053 113.559 111.864 99.9 111.864 83.0506C111.864 66.2012 98.2053 52.542 81.3559 52.542C64.5064 52.542 50.8473 66.2012 50.8473 83.0506C50.8473 99.9 64.5064 113.559 81.3559 113.559Z" fill="#C5021C"/>
<path d="M69.727 123.729C66.1773 121.609 62.0633 120.339 57.6269 120.339C53.1906 120.339 49.0766 121.609 45.527 123.729H3.38984C1.51602 123.729 0 125.247 0 127.119C0 128.99 1.51602 130.508 3.38984 130.508H16.9492V137.288C16.9492 139.16 18.4672 140.678 20.3391 140.678H145.763V123.729H69.727Z" fill="#C5021C"/>
<path d="M169.491 161.017C178.852 161.017 186.441 153.429 186.441 144.068C186.441 134.707 178.852 127.119 169.491 127.119C160.131 127.119 152.542 134.707 152.542 144.068C152.542 153.429 160.131 161.017 169.491 161.017Z" fill="#5B5D6E"/>
<path d="M57.6269 161.017C66.9877 161.017 74.5762 153.429 74.5762 144.068C74.5762 134.707 66.9877 127.119 57.6269 127.119C48.2662 127.119 40.6777 134.707 40.6777 144.068C40.6777 153.429 48.2662 161.017 57.6269 161.017Z" fill="#5B5D6E"/>
<path d="M186.441 93.2203L179.661 66.1016H145.763V93.2203H186.441Z" fill="#B4E6FF"/>
<path d="M57.6269 154.237C63.2434 154.237 67.7965 149.684 67.7965 144.068C67.7965 138.451 63.2434 133.898 57.6269 133.898C52.0105 133.898 47.4574 138.451 47.4574 144.068C47.4574 149.684 52.0105 154.237 57.6269 154.237Z" fill="#C7CFE2"/>
<path d="M81.3559 106.78C94.461 106.78 105.085 96.1558 105.085 83.0507C105.085 69.9456 94.461 59.3218 81.3559 59.3218C68.2507 59.3218 57.627 69.9456 57.627 83.0507C57.627 96.1558 68.2507 106.78 81.3559 106.78Z" fill="white"/>
<path d="M91.5254 96.6102C90.6582 96.6102 89.7907 96.2793 89.129 95.6168L78.9594 85.4473C78.3239 84.8117 77.9661 83.9492 77.9661 83.0508V69.4914C77.9661 67.6195 79.4821 66.1016 81.3559 66.1016C83.2297 66.1016 84.7458 67.6195 84.7458 69.4914V81.6473L93.9219 90.8234C95.2461 92.1477 95.2461 94.293 93.9219 95.6172C93.2602 96.2793 92.393 96.6102 91.5254 96.6102Z" fill="#5B5D6E"/>
<path d="M57.6269 147.458C59.4991 147.458 61.0167 145.94 61.0167 144.068C61.0167 142.196 59.4991 140.678 57.6269 140.678C55.7547 140.678 54.2371 142.196 54.2371 144.068C54.2371 145.94 55.7547 147.458 57.6269 147.458Z" fill="#7F8499"/>
<path d="M169.491 154.237C175.108 154.237 179.661 149.684 179.661 144.068C179.661 138.451 175.108 133.898 169.491 133.898C163.875 133.898 159.322 138.451 159.322 144.068C159.322 149.684 163.875 154.237 169.491 154.237Z" fill="#C7CFE2"/>
<path d="M169.491 147.458C171.364 147.458 172.881 145.94 172.881 144.068C172.881 142.196 171.364 140.678 169.491 140.678C167.619 140.678 166.102 142.196 166.102 144.068C166.102 145.94 167.619 147.458 169.491 147.458Z" fill="#7F8499"/>
<path d="M159.322 72.8813H181.356L179.661 66.1016H145.762V93.2203H155.932V76.2711C155.932 74.3992 157.45 72.8813 159.322 72.8813Z" fill="#9BD6FF"/>
<path d="M145.763 59.3218H172.882C174.754 59.3218 176.272 60.8397 176.272 62.7116V66.1015H145.763V59.3218Z" fill="#AFB9D2"/>
<path d="M200 106.78H189.83V120.339H200V106.78Z" fill="#F1F4FB"/>
<path d="M183.051 106.78V113.559C183.051 117.304 186.086 120.339 189.83 120.339H193.22V106.78H183.051Z" fill="#C5021C"/>
<path d="M81.3559 86.4406C79.484 86.4406 77.9661 84.9227 77.9661 83.0508V69.4914C77.9661 67.6195 79.484 66.1016 81.3559 66.1016C83.2278 66.1016 84.7458 67.6195 84.7458 69.4914V83.0508C84.7458 84.923 83.2282 86.4406 81.3559 86.4406Z" fill="#464655"/>
</g>
<defs>
<clipPath id="clip0_169_3453">
<rect width="200" height="200" fill="white"/>
</clipPath>
</defs>
</svg>
