<svg width="17" height="14" viewBox="0 0 17 14" fill="none" xmlns="http://www.w3.org/2000/svg">
<g clip-path="url(#clip0_304_583)">
<path d="M2.98001 0C2.2761 0 1.705 0.571094 1.705 1.275V2.55H0.430005C0.196255 2.55 0.00500488 2.74125 0.00500488 2.975C0.00500488 3.20875 0.196255 3.4 0.430005 3.4H7.23001C7.46376 3.4 7.655 3.59125 7.655 3.825C7.655 4.05875 7.46376 4.25 7.23001 4.25H1.28C1.04625 4.25 0.855005 4.44125 0.855005 4.675C0.855005 4.90875 1.04625 5.1 1.28 5.1H6.38C6.61376 5.1 6.80501 5.29125 6.80501 5.525C6.80501 5.75875 6.61376 5.95 6.38 5.95H0.430005C0.196255 5.95 0.00500488 6.14125 0.00500488 6.375C0.00500488 6.60875 0.196255 6.8 0.430005 6.8H5.53C5.76375 6.8 5.95501 6.99125 5.95501 7.225C5.95501 7.45875 5.76375 7.65 5.53 7.65H1.705V11.05C1.705 12.4578 2.84719 13.6 4.255 13.6C5.66282 13.6 6.80501 12.4578 6.80501 11.05H10.205C10.205 12.4578 11.3472 13.6 12.755 13.6C14.1628 13.6 15.305 12.4578 15.305 11.05H16.155C16.6252 11.05 17.005 10.6702 17.005 10.2C17.005 9.72984 16.6252 9.35 16.155 9.35V6.30328C16.155 5.85172 15.977 5.41875 15.6583 5.1L13.605 3.04672C13.2863 2.72797 12.8533 2.55 12.4017 2.55H11.055V1.275C11.055 0.571094 10.4839 0 9.78001 0H2.98001ZM14.455 6.30328V6.8H11.055V4.25H12.4017L14.455 6.30328ZM4.255 9.775C4.59316 9.775 4.91746 9.90933 5.15657 10.1484C5.39568 10.3875 5.53 10.7118 5.53 11.05C5.53 11.3882 5.39568 11.7125 5.15657 11.9516C4.91746 12.1907 4.59316 12.325 4.255 12.325C3.91685 12.325 3.59255 12.1907 3.35344 11.9516C3.11434 11.7125 2.98001 11.3882 2.98001 11.05C2.98001 10.7118 3.11434 10.3875 3.35344 10.1484C3.59255 9.90933 3.91685 9.775 4.255 9.775ZM11.48 11.05C11.48 10.7118 11.6143 10.3875 11.8534 10.1484C12.0926 9.90933 12.4169 9.775 12.755 9.775C13.0932 9.775 13.4175 9.90933 13.6566 10.1484C13.8957 10.3875 14.03 10.7118 14.03 11.05C14.03 11.3882 13.8957 11.7125 13.6566 11.9516C13.4175 12.1907 13.0932 12.325 12.755 12.325C12.4169 12.325 12.0926 12.1907 11.8534 11.9516C11.6143 11.7125 11.48 11.3882 11.48 11.05Z" fill="white"/>
</g>
<defs>
<clipPath id="clip0_304_583">
<rect width="17.01" height="13.6" fill="white"/>
</clipPath>
</defs>
</svg>
