<svg width="17" height="14" viewBox="0 0 17 14" fill="none" xmlns="http://www.w3.org/2000/svg">
<g clip-path="url(#clip0_304_24)">
<path d="M1.7 2.7498C1.7 1.81215 2.46234 1.0498 3.4 1.0498H11.05C11.9877 1.0498 12.75 1.81215 12.75 2.7498V3.5998H14.0967C14.5483 3.5998 14.9813 3.77777 15.3 4.09652L16.5033 5.2998C16.822 5.61855 17 6.05152 17 6.50309V10.3998C17 11.3375 16.2377 12.0998 15.3 12.0998H15.2123C14.9361 13.08 14.033 13.7998 12.9625 13.7998C11.892 13.7998 10.9916 13.08 10.7127 12.0998H7.98734C7.71109 13.08 6.80797 13.7998 5.7375 13.7998C4.66703 13.7998 3.76656 13.08 3.48766 12.0998H3.4C2.46234 12.0998 1.7 11.3375 1.7 10.3998V9.1248H0.6375C0.284219 9.1248 0 8.84059 0 8.4873C0 8.13402 0.284219 7.8498 0.6375 7.8498H3.6125C3.96578 7.8498 4.25 7.56559 4.25 7.21231C4.25 6.85902 3.96578 6.5748 3.6125 6.5748H0.6375C0.284219 6.5748 0 6.29059 0 5.9373C0 5.58402 0.284219 5.2998 0.6375 5.2998H5.3125C5.66578 5.2998 5.95 5.01559 5.95 4.6623C5.95 4.30902 5.66578 4.0248 5.3125 4.0248H0.6375C0.284219 4.0248 0 3.74059 0 3.3873C0 3.03402 0.284219 2.7498 0.6375 2.7498H1.7ZM15.3 7.8498V6.50309L14.0967 5.2998H12.75V7.8498H15.3ZM6.8 11.4623C6.8 11.1805 6.68806 10.9103 6.4888 10.711C6.28954 10.5117 6.01929 10.3998 5.7375 10.3998C5.45571 10.3998 5.18546 10.5117 4.9862 10.711C4.78694 10.9103 4.675 11.1805 4.675 11.4623C4.675 11.7441 4.78694 12.0143 4.9862 12.2136C5.18546 12.4129 5.45571 12.5248 5.7375 12.5248C6.01929 12.5248 6.28954 12.4129 6.4888 12.2136C6.68806 12.0143 6.8 11.7441 6.8 11.4623ZM12.9625 12.5248C13.2443 12.5248 13.5145 12.4129 13.7138 12.2136C13.9131 12.0143 14.025 11.7441 14.025 11.4623C14.025 11.1805 13.9131 10.9103 13.7138 10.711C13.5145 10.5117 13.2443 10.3998 12.9625 10.3998C12.6807 10.3998 12.4105 10.5117 12.2112 10.711C12.0119 10.9103 11.9 11.1805 11.9 11.4623C11.9 11.7441 12.0119 12.0143 12.2112 12.2136C12.4105 12.4129 12.6807 12.5248 12.9625 12.5248Z" fill="white"/>
</g>
<defs>
<clipPath id="clip0_304_24">
<rect width="17" height="13.6" fill="white" transform="translate(0 0.200195)"/>
</clipPath>
</defs>
</svg>
