<svg width="17" height="14" viewBox="0 0 17 14" fill="none" xmlns="http://www.w3.org/2000/svg">
<g clip-path="url(#clip0_169_3531)">
<path d="M1.7 2.5501C1.7 1.61244 2.46234 0.850098 3.4 0.850098H11.05C11.9877 0.850098 12.75 1.61244 12.75 2.5501V3.4001H14.0967C14.5483 3.4001 14.9813 3.57807 15.3 3.89682L16.5033 5.1001C16.822 5.41885 17 5.85182 17 6.30338V10.2001C17 11.1378 16.2377 11.9001 15.3 11.9001H15.2123C14.9361 12.8803 14.033 13.6001 12.9625 13.6001C11.892 13.6001 10.9916 12.8803 10.7127 11.9001H7.98734C7.71109 12.8803 6.80797 13.6001 5.7375 13.6001C4.66703 13.6001 3.76656 12.8803 3.48766 11.9001H3.4C2.46234 11.9001 1.7 11.1378 1.7 10.2001V8.9251H0.6375C0.284219 8.9251 0 8.64088 0 8.2876C0 7.93432 0.284219 7.6501 0.6375 7.6501H3.6125C3.96578 7.6501 4.25 7.36588 4.25 7.0126C4.25 6.65932 3.96578 6.3751 3.6125 6.3751H0.6375C0.284219 6.3751 0 6.09088 0 5.7376C0 5.38432 0.284219 5.1001 0.6375 5.1001H5.3125C5.66578 5.1001 5.95 4.81588 5.95 4.4626C5.95 4.10932 5.66578 3.8251 5.3125 3.8251H0.6375C0.284219 3.8251 0 3.54088 0 3.1876C0 2.83432 0.284219 2.5501 0.6375 2.5501H1.7ZM15.3 7.6501V6.30338L14.0967 5.1001H12.75V7.6501H15.3ZM6.8 11.2626C6.8 10.9808 6.68806 10.7106 6.4888 10.5113C6.28954 10.312 6.01929 10.2001 5.7375 10.2001C5.45571 10.2001 5.18546 10.312 4.9862 10.5113C4.78694 10.7106 4.675 10.9808 4.675 11.2626C4.675 11.5444 4.78694 11.8146 4.9862 12.0139C5.18546 12.2132 5.45571 12.3251 5.7375 12.3251C6.01929 12.3251 6.28954 12.2132 6.4888 12.0139C6.68806 11.8146 6.8 11.5444 6.8 11.2626ZM12.9625 12.3251C13.2443 12.3251 13.5145 12.2132 13.7138 12.0139C13.9131 11.8146 14.025 11.5444 14.025 11.2626C14.025 10.9808 13.9131 10.7106 13.7138 10.5113C13.5145 10.312 13.2443 10.2001 12.9625 10.2001C12.6807 10.2001 12.4105 10.312 12.2112 10.5113C12.0119 10.7106 11.9 10.9808 11.9 11.2626C11.9 11.5444 12.0119 11.8146 12.2112 12.0139C12.4105 12.2132 12.6807 12.3251 12.9625 12.3251Z" fill="#C5021C"/>
</g>
<defs>
<clipPath id="clip0_169_3531">
<rect width="17" height="13.6" fill="white"/>
</clipPath>
</defs>
</svg>
