<svg width="49" height="41" viewBox="0 0 49 41" fill="none" xmlns="http://www.w3.org/2000/svg">
<g clip-path="url(#clip0_336_86)">
<path d="M37.395 40.5C43.827 40.369 49 35.107 49 28.639C49 25.493 47.751 22.476 45.528 20.252L25.79 0.5V12.777C25.79 14.83 26.605 16.799 28.056 18.251L32.679 22.878L32.692 22.891L40.445 30.649C40.5621 30.7707 40.6268 30.9335 40.6252 31.1024C40.6236 31.2714 40.5558 31.4329 40.4363 31.5523C40.3169 31.6718 40.1554 31.7396 39.9864 31.7412C39.8175 31.7428 39.6547 31.6781 39.533 31.561L36.861 28.887H12.139L9.467 31.561C9.40712 31.6209 9.33603 31.6684 9.25779 31.7008C9.17955 31.7332 9.09569 31.7499 9.011 31.7499C8.92631 31.7499 8.84245 31.7332 8.76421 31.7008C8.68597 31.6684 8.61488 31.6209 8.555 31.561C8.49512 31.5011 8.44762 31.43 8.41521 31.3518C8.3828 31.2735 8.36612 31.1897 8.36612 31.105C8.36612 31.0203 8.3828 30.9365 8.41521 30.8582C8.44762 30.78 8.49512 30.7089 8.555 30.649L16.308 22.891L16.32 22.878L20.944 18.251C22.3954 16.799 23.2108 14.83 23.211 12.777V0.5L3.47 20.252C1.24747 22.4773 -0.000625081 25.4939 2.34856e-07 28.639C2.34856e-07 35.107 5.173 40.369 11.605 40.5H37.395Z" fill="url(#paint0_linear_336_86)"/>
</g>
<defs>
<linearGradient id="paint0_linear_336_86" x1="24.5" y1="0.5" x2="24.5" y2="40.5" gradientUnits="userSpaceOnUse">
<stop stop-color="#FFB86D"/>
<stop offset="0.833" stop-color="#FF0A0A"/>
</linearGradient>
<clipPath id="clip0_336_86">
<rect width="49" height="40" fill="white" transform="translate(0 0.5)"/>
</clipPath>
</defs>
</svg>
