<svg width="51" height="39" viewBox="0 0 51 39" fill="none" xmlns="http://www.w3.org/2000/svg">
<g clip-path="url(#clip0_336_80)">
<mask id="mask0_336_80" style="mask-type:luminance" maskUnits="userSpaceOnUse" x="0" y="-1" width="51" height="40">
<path d="M0 -1H51V39H0V-1Z" fill="white"/>
</mask>
<g mask="url(#mask0_336_80)">
<path d="M12.446 -1L22.78 7.829C23.394 8.353 23.748 9.122 23.748 9.932V16.586L13.413 7.757C13.1095 7.49711 12.8659 7.17455 12.6989 6.81151C12.532 6.44848 12.4457 6.05358 12.446 5.654V-1ZM12.446 39L22.78 30.171C23.0837 29.9112 23.3275 29.5887 23.4946 29.2256C23.6617 28.8626 23.7482 28.4677 23.748 28.068V21.414L13.413 30.243C13.1095 30.5029 12.8659 30.8254 12.6989 31.1885C12.532 31.5515 12.4457 31.9464 12.446 32.346V39ZM0.117004 8.31L10.311 16.97C10.805 17.39 11.431 17.62 12.078 17.62H20.298L10.13 8.963C9.6363 8.54212 9.00876 8.31095 8.36 8.311H0.118004L0.117004 8.31ZM0.117004 29.69L10.248 21.034C10.7421 20.6114 11.3708 20.3791 12.021 20.379H20.323L10.129 29.039C9.635 29.459 9.00901 29.689 8.36201 29.689H0.117004V29.69ZM37.788 -1L27.454 7.829C27.1505 8.08889 26.9069 8.41145 26.7399 8.77449C26.573 9.13752 26.4867 9.53242 26.487 9.932V16.586L36.821 7.757C37.1245 7.49707 37.368 7.1745 37.535 6.81147C37.7019 6.44844 37.7882 6.05357 37.788 5.654V-1ZM37.788 39L27.454 30.171C27.1505 29.9111 26.9069 29.5886 26.7399 29.2255C26.573 28.8625 26.4867 28.4676 26.487 28.068V21.414L36.821 30.243C37.435 30.767 37.788 31.536 37.788 32.346V39ZM50.118 8.31L39.924 16.97C39.43 17.39 38.804 17.62 38.157 17.62H29.937L40.105 8.963C40.5987 8.54212 41.2262 8.31095 41.875 8.311L50.118 8.31ZM50.118 29.69L39.987 21.034C39.4929 20.6114 38.8642 20.3792 38.214 20.379H29.912L40.106 29.039C40.6 29.459 41.226 29.689 41.872 29.689H50.118V29.69Z" fill="#F94006"/>
</g>
</g>
<defs>
<clipPath id="clip0_336_80">
<rect width="51" height="39" fill="white"/>
</clipPath>
</defs>
</svg>
