<svg width="60" height="41" viewBox="0 0 60 41" fill="none" xmlns="http://www.w3.org/2000/svg">
<g clip-path="url(#clip0_336_45)">
<mask id="mask0_336_45" style="mask-type:luminance" maskUnits="userSpaceOnUse" x="0" y="0" width="60" height="41">
<path d="M0 0.5H60V40.5H0V0.5Z" fill="white"/>
</mask>
<g mask="url(#mask0_336_45)">
<path d="M39.2 32.5C45.827 32.5 51.2 27.127 51.2 20.5C51.2 13.873 45.827 8.5 39.2 8.5C32.98 8.5 27.866 13.232 27.26 19.293C24.7942 18.1787 22.1473 17.5191 19.447 17.346C20.96 7.8 29.227 0.5 39.2 0.5C50.246 0.5 59.2 9.454 59.2 20.5C59.2 31.143 50.887 39.844 40.4 40.465V40.5H27.22V38.755C27.22 36.487 26.284 34.282 24.57 32.634C22.852 30.98 20.49 30.027 18 30.027C15.51 30.027 13.148 30.98 11.43 32.634C9.716 34.282 8.78 36.487 8.78 38.754V40.5H0V38.712C0 34.037 1.94 29.591 5.333 26.34C8.618 23.193 13.005 21.41 17.571 21.305C17.8246 21.2991 18.0783 21.2985 18.332 21.303C22.933 21.385 27.359 23.171 30.667 26.34C32.478 28.0701 33.8934 30.1715 34.816 32.5H39.2Z" fill="#4EAE04"/>
<path d="M21.677 35.424C22.652 36.272 23.2 37.422 23.2 38.622V40.5H12.8V38.622C12.8 37.422 13.348 36.272 14.323 35.424C15.298 34.576 16.621 34.1 18 34.1C19.38 34.1 20.702 34.576 21.677 35.424ZM43.782 18.537C43.0877 18.537 42.4218 18.2612 41.9308 17.7702C41.4398 17.2792 41.164 16.6133 41.164 15.919V15.264C41.164 14.7431 40.9571 14.2436 40.5888 13.8752C40.2204 13.5069 39.7209 13.3 39.2 13.3C38.6791 13.3 38.1796 13.5069 37.8112 13.8752C37.4429 14.2436 37.236 14.7431 37.236 15.264V15.919C37.236 16.6133 36.9602 17.2792 36.4692 17.7702C35.9782 18.2612 35.3123 18.537 34.618 18.537H33.964C33.4509 18.5486 32.9628 18.7605 32.604 19.1275C32.2452 19.4945 32.0443 19.9873 32.0443 20.5005C32.0443 21.0137 32.2452 21.5065 32.604 21.8735C32.9628 22.2405 33.4509 22.4524 33.964 22.464H34.618C34.9619 22.464 35.3024 22.5317 35.6201 22.6634C35.9378 22.795 36.2264 22.9879 36.4696 23.2311C36.7127 23.4744 36.9055 23.7631 37.037 24.0808C37.1685 24.3986 37.2361 24.7391 37.236 25.083V25.737C37.236 26.2579 37.4429 26.7574 37.8112 27.1258C38.1796 27.4941 38.6791 27.701 39.2 27.701C39.7209 27.701 40.2204 27.4941 40.5888 27.1258C40.9571 26.7574 41.164 26.2579 41.164 25.737V25.083C41.1639 24.7391 41.2315 24.3986 41.363 24.0808C41.4945 23.7631 41.6873 23.4744 41.9304 23.2311C42.1736 22.9879 42.4622 22.795 42.7799 22.6634C43.0976 22.5317 43.4381 22.464 43.782 22.464H44.436C44.6976 22.4699 44.9577 22.4235 45.2011 22.3275C45.4445 22.2314 45.6662 22.0878 45.8533 21.9048C46.0404 21.7219 46.1891 21.5035 46.2905 21.2623C46.392 21.0212 46.4443 20.7621 46.4443 20.5005C46.4443 20.2389 46.392 19.9798 46.2905 19.7387C46.1891 19.4975 46.0404 19.2791 45.8533 19.0962C45.6662 18.9132 45.4445 18.7696 45.2011 18.6735C44.9577 18.5775 44.6976 18.5311 44.436 18.537H43.782ZM11.2 3.7C11.2 4.54869 11.5371 5.36263 12.1373 5.96274C12.7374 6.56286 13.5513 6.9 14.4 6.9H15.2C15.8365 6.9 16.447 7.15286 16.8971 7.60294C17.3471 8.05303 17.6 8.66348 17.6 9.3C17.6 9.93652 17.3471 10.547 16.8971 10.9971C16.447 11.4471 15.8365 11.7 15.2 11.7H14.4C13.5513 11.7 12.7374 12.0371 12.1373 12.6373C11.5371 13.2374 11.2 14.0513 11.2 14.9V15.7C11.2 16.3365 10.9471 16.947 10.4971 17.3971C10.047 17.8471 9.43652 18.1 8.8 18.1C8.16348 18.1 7.55303 17.8471 7.10294 17.3971C6.65286 16.947 6.4 16.3365 6.4 15.7V14.9C6.4 14.0513 6.06286 13.2374 5.46274 12.6373C4.86263 12.0371 4.04869 11.7 3.2 11.7H2.4C1.76348 11.7 1.15303 11.4471 0.702944 10.9971C0.252856 10.547 0 9.93652 0 9.3C0 8.66348 0.252856 8.05303 0.702944 7.60294C1.15303 7.15286 1.76348 6.9 2.4 6.9H3.2C4.04869 6.9 4.86263 6.56286 5.46274 5.96274C6.06286 5.36263 6.4 4.54869 6.4 3.7V2.9C6.4 2.26348 6.65286 1.65303 7.10294 1.20294C7.55303 0.752856 8.16348 0.5 8.8 0.5C9.43652 0.5 10.047 0.752856 10.4971 1.20294C10.9471 1.65303 11.2 2.26348 11.2 2.9V3.7Z" fill="#4EAE04"/>
</g>
</g>
<defs>
<clipPath id="clip0_336_45">
<rect width="60" height="40" fill="white" transform="translate(0 0.5)"/>
</clipPath>
</defs>
</svg>
