<svg width="40" height="41" viewBox="0 0 40 41" fill="none" xmlns="http://www.w3.org/2000/svg">
<g clip-path="url(#clip0_336_54)">
<path d="M20 0.5C31.046 0.5 40 9.454 40 20.5V34.5C40 36.0913 39.3678 37.6174 38.2426 38.7426C37.1174 39.8679 35.5913 40.5 34 40.5H21V31.726C21 29.724 21.122 27.65 22.172 25.946C22.9237 24.7248 23.9293 23.6796 25.1205 22.8813C26.3117 22.0829 27.6607 21.5501 29.076 21.319L29.459 21.257C29.6169 21.203 29.754 21.101 29.851 20.9653C29.9481 20.8296 30.0002 20.6669 30.0002 20.5C30.0002 20.3331 29.9481 20.1704 29.851 20.0347C29.754 19.899 29.6169 19.797 29.459 19.743L29.076 19.681C27.0082 19.3432 25.0987 18.3644 23.6171 16.8829C22.1355 15.4013 21.1568 13.4918 20.819 11.424L20.757 11.041C20.703 10.8831 20.601 10.746 20.4653 10.649C20.3295 10.5519 20.1669 10.4997 20 10.4997C19.8331 10.4997 19.6704 10.5519 19.5347 10.649C19.399 10.746 19.297 10.8831 19.243 11.041L19.181 11.424C18.9499 12.8393 18.4171 14.1883 17.6188 15.3795C16.8204 16.5707 15.7752 17.5763 14.554 18.328C12.85 19.378 10.776 19.5 8.77399 19.5H0.0239868C0.546987 8.919 9.28999 0.5 20 0.5Z" fill="url(#paint0_radial_336_54)"/>
<path style="mix-blend-mode:lighten" d="M20 0.5C31.046 0.5 40 9.454 40 20.5V34.5C40 36.0913 39.3678 37.6174 38.2426 38.7426C37.1174 39.8679 35.5913 40.5 34 40.5H21V31.726C21 29.724 21.122 27.65 22.172 25.946C22.9237 24.7248 23.9293 23.6796 25.1205 22.8813C26.3117 22.0829 27.6607 21.5501 29.076 21.319L29.459 21.257C29.6169 21.203 29.754 21.101 29.851 20.9653C29.9481 20.8296 30.0002 20.6669 30.0002 20.5C30.0002 20.3331 29.9481 20.1704 29.851 20.0347C29.754 19.899 29.6169 19.797 29.459 19.743L29.076 19.681C27.0082 19.3432 25.0987 18.3644 23.6171 16.8829C22.1355 15.4013 21.1568 13.4918 20.819 11.424L20.757 11.041C20.703 10.8831 20.601 10.746 20.4653 10.649C20.3295 10.5519 20.1669 10.4997 20 10.4997C19.8331 10.4997 19.6704 10.5519 19.5347 10.649C19.399 10.746 19.297 10.8831 19.243 11.041L19.181 11.424C18.9499 12.8393 18.4171 14.1883 17.6188 15.3795C16.8204 16.5707 15.7752 17.5763 14.554 18.328C12.85 19.378 10.776 19.5 8.77399 19.5H0.0239868C0.546987 8.919 9.28999 0.5 20 0.5Z" fill="url(#paint1_radial_336_54)"/>
<path style="mix-blend-mode:lighten" d="M20 0.5C31.046 0.5 40 9.454 40 20.5V34.5C40 36.0913 39.3678 37.6174 38.2426 38.7426C37.1174 39.8679 35.5913 40.5 34 40.5H21V31.726C21 29.724 21.122 27.65 22.172 25.946C22.9237 24.7248 23.9293 23.6796 25.1205 22.8813C26.3117 22.0829 27.6607 21.5501 29.076 21.319L29.459 21.257C29.6169 21.203 29.754 21.101 29.851 20.9653C29.9481 20.8296 30.0002 20.6669 30.0002 20.5C30.0002 20.3331 29.9481 20.1704 29.851 20.0347C29.754 19.899 29.6169 19.797 29.459 19.743L29.076 19.681C27.0082 19.3432 25.0987 18.3644 23.6171 16.8829C22.1355 15.4013 21.1568 13.4918 20.819 11.424L20.757 11.041C20.703 10.8831 20.601 10.746 20.4653 10.649C20.3295 10.5519 20.1669 10.4997 20 10.4997C19.8331 10.4997 19.6704 10.5519 19.5347 10.649C19.399 10.746 19.297 10.8831 19.243 11.041L19.181 11.424C18.9499 12.8393 18.4171 14.1883 17.6188 15.3795C16.8204 16.5707 15.7752 17.5763 14.554 18.328C12.85 19.378 10.776 19.5 8.77399 19.5H0.0239868C0.546987 8.919 9.28999 0.5 20 0.5Z" fill="url(#paint2_radial_336_54)"/>
<path d="M0 21.5H8.774C10.776 21.5 12.85 21.622 14.554 22.672C15.886 23.4928 17.0072 24.614 17.828 25.946C18.878 27.65 19 29.724 19 31.726V40.5H6C4.4087 40.5 2.88258 39.8679 1.75736 38.7426C0.632141 37.6174 0 36.0913 0 34.5L0 21.5Z" fill="url(#paint3_radial_336_54)"/>
<path style="mix-blend-mode:lighten" d="M0 21.5H8.774C10.776 21.5 12.85 21.622 14.554 22.672C15.886 23.4928 17.0072 24.614 17.828 25.946C18.878 27.65 19 29.724 19 31.726V40.5H6C4.4087 40.5 2.88258 39.8679 1.75736 38.7426C0.632141 37.6174 0 36.0913 0 34.5L0 21.5Z" fill="url(#paint4_radial_336_54)"/>
<path style="mix-blend-mode:lighten" d="M0 21.5H8.774C10.776 21.5 12.85 21.622 14.554 22.672C15.886 23.4928 17.0072 24.614 17.828 25.946C18.878 27.65 19 29.724 19 31.726V40.5H6C4.4087 40.5 2.88258 39.8679 1.75736 38.7426C0.632141 37.6174 0 36.0913 0 34.5L0 21.5Z" fill="url(#paint5_radial_336_54)"/>
<path d="M40 2.5C40 3.03043 39.7893 3.53914 39.4142 3.91421C39.0391 4.28929 38.5304 4.5 38 4.5C37.4696 4.5 36.9609 4.28929 36.5858 3.91421C36.2107 3.53914 36 3.03043 36 2.5C36 1.96957 36.2107 1.46086 36.5858 1.08579C36.9609 0.710714 37.4696 0.5 38 0.5C38.5304 0.5 39.0391 0.710714 39.4142 1.08579C39.7893 1.46086 40 1.96957 40 2.5Z" fill="url(#paint6_radial_336_54)"/>
<path style="mix-blend-mode:lighten" d="M40 2.5C40 3.03043 39.7893 3.53914 39.4142 3.91421C39.0391 4.28929 38.5304 4.5 38 4.5C37.4696 4.5 36.9609 4.28929 36.5858 3.91421C36.2107 3.53914 36 3.03043 36 2.5C36 1.96957 36.2107 1.46086 36.5858 1.08579C36.9609 0.710714 37.4696 0.5 38 0.5C38.5304 0.5 39.0391 0.710714 39.4142 1.08579C39.7893 1.46086 40 1.96957 40 2.5Z" fill="url(#paint7_radial_336_54)"/>
<path style="mix-blend-mode:lighten" d="M40 2.5C40 3.03043 39.7893 3.53914 39.4142 3.91421C39.0391 4.28929 38.5304 4.5 38 4.5C37.4696 4.5 36.9609 4.28929 36.5858 3.91421C36.2107 3.53914 36 3.03043 36 2.5C36 1.96957 36.2107 1.46086 36.5858 1.08579C36.9609 0.710714 37.4696 0.5 38 0.5C38.5304 0.5 39.0391 0.710714 39.4142 1.08579C39.7893 1.46086 40 1.96957 40 2.5Z" fill="url(#paint8_radial_336_54)"/>
<path fill-rule="evenodd" clip-rule="evenodd" d="M29.704 22.23L29.238 22.306C27.9642 22.5139 26.7501 22.9934 25.6779 23.7118C24.6057 24.4303 23.7006 25.371 23.024 26.47C22.136 27.911 22 29.723 22 31.726V39.5H34C35.3261 39.5 36.5979 38.9732 37.5355 38.0355C38.4732 37.0979 39 35.8261 39 34.5V20.5C39 10.007 30.493 1.5 20 1.5C10.182 1.5 2.103 8.947 1.104 18.5H8.774C10.778 18.5 12.589 18.364 14.03 17.476C15.1291 16.7994 16.0698 15.8943 16.7882 14.8221C17.5067 13.75 17.9861 12.5358 18.194 11.262L18.27 10.796L18.297 10.716C18.4185 10.3609 18.648 10.0527 18.9534 9.83446C19.2588 9.61623 19.6247 9.49892 20 9.49892C20.3753 9.49892 20.7412 9.61623 21.0466 9.83446C21.352 10.0527 21.5815 10.3609 21.703 10.716L21.73 10.796L21.806 11.262C22.1099 13.1233 22.9909 14.842 24.3244 16.1756C25.658 17.5091 27.3767 18.3901 29.238 18.694L29.704 18.77L29.784 18.797C30.1391 18.9185 30.4473 19.148 30.6655 19.4534C30.8838 19.7588 31.0011 20.1247 31.0011 20.5C31.0011 20.8753 30.8838 21.2412 30.6655 21.5466C30.4473 21.852 30.1391 22.0815 29.784 22.203L29.704 22.23ZM0.024 19.5C0.041 19.164 0.066 18.831 0.099 18.5C1.102 8.393 9.629 0.5 20 0.5C31.046 0.5 40 9.454 40 20.5V34.5C40 36.0913 39.3679 37.6174 38.2426 38.7426C37.1174 39.8679 35.5913 40.5 34 40.5H21V31.726C21 29.724 21.122 27.65 22.172 25.946C22.9237 24.7248 23.9293 23.6796 25.1205 22.8813C26.3118 22.0829 27.6607 21.5501 29.076 21.319L29.459 21.257C29.6169 21.203 29.754 21.101 29.851 20.9653C29.9481 20.8296 30.0003 20.6669 30.0003 20.5C30.0003 20.3331 29.9481 20.1704 29.851 20.0347C29.754 19.899 29.6169 19.797 29.459 19.743L29.076 19.681C27.0082 19.3432 25.0987 18.3644 23.6171 16.8829C22.1356 15.4013 21.1568 13.4918 20.819 11.424L20.757 11.041C20.703 10.8831 20.601 10.746 20.4653 10.649C20.3296 10.5519 20.1669 10.4997 20 10.4997C19.8331 10.4997 19.6704 10.5519 19.5347 10.649C19.399 10.746 19.297 10.8831 19.243 11.041L19.181 11.424C18.9499 12.8393 18.4171 14.1883 17.6188 15.3795C16.8204 16.5707 15.7752 17.5763 14.554 18.328C12.85 19.378 10.776 19.5 8.774 19.5H0.024ZM8.774 22.5H1V34.5C1 35.8261 1.52678 37.0979 2.46447 38.0355C2.92876 38.4998 3.47995 38.8681 4.08658 39.1194C4.69321 39.3707 5.34339 39.5 6 39.5H18V31.726C18 29.723 17.864 27.911 16.976 26.47C16.2374 25.2716 15.2284 24.2626 14.03 23.524C12.589 22.636 10.778 22.5 8.774 22.5ZM8.774 21.5C10.776 21.5 12.85 21.622 14.554 22.672C15.886 23.4928 17.0072 24.614 17.828 25.946C18.878 27.65 19 29.724 19 31.726V40.5H6C4.4087 40.5 2.88258 39.8679 1.75736 38.7426C0.632141 37.6174 0 36.0913 0 34.5L0 21.5H8.774Z" fill="white"/>
<path style="mix-blend-mode:exclusion" fill-rule="evenodd" clip-rule="evenodd" d="M29.704 22.23L29.238 22.306C27.9642 22.5139 26.7501 22.9934 25.6779 23.7118C24.6057 24.4303 23.7006 25.371 23.024 26.47C22.136 27.911 22 29.723 22 31.726V39.5H34C35.3261 39.5 36.5979 38.9732 37.5355 38.0355C38.4732 37.0979 39 35.8261 39 34.5V20.5C39 10.007 30.493 1.5 20 1.5C10.182 1.5 2.103 8.947 1.104 18.5H8.774C10.778 18.5 12.589 18.364 14.03 17.476C15.1291 16.7994 16.0698 15.8943 16.7882 14.8221C17.5067 13.75 17.9861 12.5358 18.194 11.262L18.27 10.796L18.297 10.716C18.4185 10.3609 18.648 10.0527 18.9534 9.83446C19.2588 9.61623 19.6247 9.49892 20 9.49892C20.3753 9.49892 20.7412 9.61623 21.0466 9.83446C21.352 10.0527 21.5815 10.3609 21.703 10.716L21.73 10.796L21.806 11.262C22.1099 13.1233 22.9909 14.842 24.3244 16.1756C25.658 17.5091 27.3767 18.3901 29.238 18.694L29.704 18.77L29.784 18.797C30.1391 18.9185 30.4473 19.148 30.6655 19.4534C30.8838 19.7588 31.0011 20.1247 31.0011 20.5C31.0011 20.8753 30.8838 21.2412 30.6655 21.5466C30.4473 21.852 30.1391 22.0815 29.784 22.203L29.704 22.23ZM0.024 19.5C0.041 19.164 0.066 18.831 0.099 18.5C1.102 8.393 9.629 0.5 20 0.5C31.046 0.5 40 9.454 40 20.5V34.5C40 36.0913 39.3679 37.6174 38.2426 38.7426C37.1174 39.8679 35.5913 40.5 34 40.5H21V31.726C21 29.724 21.122 27.65 22.172 25.946C22.9237 24.7248 23.9293 23.6796 25.1205 22.8813C26.3118 22.0829 27.6607 21.5501 29.076 21.319L29.459 21.257C29.6169 21.203 29.754 21.101 29.851 20.9653C29.9481 20.8296 30.0003 20.6669 30.0003 20.5C30.0003 20.3331 29.9481 20.1704 29.851 20.0347C29.754 19.899 29.6169 19.797 29.459 19.743L29.076 19.681C27.0082 19.3432 25.0987 18.3644 23.6171 16.8829C22.1356 15.4013 21.1568 13.4918 20.819 11.424L20.757 11.041C20.703 10.8831 20.601 10.746 20.4653 10.649C20.3296 10.5519 20.1669 10.4997 20 10.4997C19.8331 10.4997 19.6704 10.5519 19.5347 10.649C19.399 10.746 19.297 10.8831 19.243 11.041L19.181 11.424C18.9499 12.8393 18.4171 14.1883 17.6188 15.3795C16.8204 16.5707 15.7752 17.5763 14.554 18.328C12.85 19.378 10.776 19.5 8.774 19.5H0.024ZM8.774 22.5H1V34.5C1 35.8261 1.52678 37.0979 2.46447 38.0355C2.92876 38.4998 3.47995 38.8681 4.08658 39.1194C4.69321 39.3707 5.34339 39.5 6 39.5H18V31.726C18 29.723 17.864 27.911 16.976 26.47C16.2374 25.2716 15.2284 24.2626 14.03 23.524C12.589 22.636 10.778 22.5 8.774 22.5ZM8.774 21.5C10.776 21.5 12.85 21.622 14.554 22.672C15.886 23.4928 17.0072 24.614 17.828 25.946C18.878 27.65 19 29.724 19 31.726V40.5H6C4.4087 40.5 2.88258 39.8679 1.75736 38.7426C0.632141 37.6174 0 36.0913 0 34.5L0 21.5H8.774Z" fill="url(#paint9_linear_336_54)"/>
<path fill-rule="evenodd" clip-rule="evenodd" d="M29.704 22.23L29.238 22.306C27.9642 22.5139 26.7501 22.9934 25.6779 23.7118C24.6057 24.4303 23.7006 25.371 23.024 26.47C22.136 27.911 22 29.723 22 31.726V39.5H34C35.3261 39.5 36.5979 38.9732 37.5355 38.0355C38.4732 37.0979 39 35.8261 39 34.5V20.5C39 10.007 30.493 1.5 20 1.5C10.182 1.5 2.103 8.947 1.104 18.5H8.774C10.778 18.5 12.589 18.364 14.03 17.476C15.1291 16.7994 16.0698 15.8943 16.7882 14.8221C17.5067 13.75 17.9861 12.5358 18.194 11.262L18.27 10.796L18.297 10.716C18.4185 10.3609 18.648 10.0527 18.9534 9.83446C19.2588 9.61623 19.6247 9.49892 20 9.49892C20.3753 9.49892 20.7412 9.61623 21.0466 9.83446C21.352 10.0527 21.5815 10.3609 21.703 10.716L21.73 10.796L21.806 11.262C22.1099 13.1233 22.9909 14.842 24.3244 16.1756C25.658 17.5091 27.3767 18.3901 29.238 18.694L29.704 18.77L29.784 18.797C30.1391 18.9185 30.4473 19.148 30.6655 19.4534C30.8838 19.7588 31.0011 20.1247 31.0011 20.5C31.0011 20.8753 30.8838 21.2412 30.6655 21.5466C30.4473 21.852 30.1391 22.0815 29.784 22.203L29.704 22.23ZM0.024 19.5C0.041 19.164 0.066 18.831 0.099 18.5C1.102 8.393 9.629 0.5 20 0.5C31.046 0.5 40 9.454 40 20.5V34.5C40 36.0913 39.3679 37.6174 38.2426 38.7426C37.1174 39.8679 35.5913 40.5 34 40.5H21V31.726C21 29.724 21.122 27.65 22.172 25.946C22.9237 24.7248 23.9293 23.6796 25.1205 22.8813C26.3118 22.0829 27.6607 21.5501 29.076 21.319L29.459 21.257C29.6169 21.203 29.754 21.101 29.851 20.9653C29.9481 20.8296 30.0003 20.6669 30.0003 20.5C30.0003 20.3331 29.9481 20.1704 29.851 20.0347C29.754 19.899 29.6169 19.797 29.459 19.743L29.076 19.681C27.0082 19.3432 25.0987 18.3644 23.6171 16.8829C22.1356 15.4013 21.1568 13.4918 20.819 11.424L20.757 11.041C20.703 10.8831 20.601 10.746 20.4653 10.649C20.3296 10.5519 20.1669 10.4997 20 10.4997C19.8331 10.4997 19.6704 10.5519 19.5347 10.649C19.399 10.746 19.297 10.8831 19.243 11.041L19.181 11.424C18.9499 12.8393 18.4171 14.1883 17.6188 15.3795C16.8204 16.5707 15.7752 17.5763 14.554 18.328C12.85 19.378 10.776 19.5 8.774 19.5H0.024ZM8.774 22.5H1V34.5C1 35.8261 1.52678 37.0979 2.46447 38.0355C2.92876 38.4998 3.47995 38.8681 4.08658 39.1194C4.69321 39.3707 5.34339 39.5 6 39.5H18V31.726C18 29.723 17.864 27.911 16.976 26.47C16.2374 25.2716 15.2284 24.2626 14.03 23.524C12.589 22.636 10.778 22.5 8.774 22.5ZM8.774 21.5C10.776 21.5 12.85 21.622 14.554 22.672C15.886 23.4928 17.0072 24.614 17.828 25.946C18.878 27.65 19 29.724 19 31.726V40.5H6C4.4087 40.5 2.88258 39.8679 1.75736 38.7426C0.632141 37.6174 0 36.0913 0 34.5L0 21.5H8.774Z" fill="url(#paint10_linear_336_54)"/>
</g>
<defs>
<radialGradient id="paint0_radial_336_54" cx="0" cy="0" r="1" gradientUnits="userSpaceOnUse" gradientTransform="translate(9.49998 2.5) rotate(52.507) scale(46.0027 196.428)">
<stop stop-color="#4CE0F0"/>
<stop offset="0.193" stop-color="#4C70F0"/>
<stop offset="1" stop-opacity="0"/>
</radialGradient>
<radialGradient id="paint1_radial_336_54" cx="0" cy="0" r="1" gradientUnits="userSpaceOnUse" gradientTransform="translate(1.49998 39) rotate(-38.5584) scale(44.1192 188.385)">
<stop stop-color="#E6D58C"/>
<stop offset="0.193" stop-color="#D5723B"/>
<stop offset="1" stop-color="#312935"/>
</radialGradient>
<radialGradient id="paint2_radial_336_54" cx="0" cy="0" r="1" gradientUnits="userSpaceOnUse" gradientTransform="translate(37.0007 9.49911) rotate(146.31) scale(28.8444 39.4368)">
<stop stop-color="#EBF5EE"/>
<stop offset="0.245" stop-color="#4CC9BB"/>
<stop offset="1" stop-color="#4F5EAF"/>
</radialGradient>
<radialGradient id="paint3_radial_336_54" cx="0" cy="0" r="1" gradientUnits="userSpaceOnUse" gradientTransform="translate(9.50001 2.49999) rotate(52.507) scale(46.0027 196.428)">
<stop stop-color="#4CE0F0"/>
<stop offset="0.193" stop-color="#4C70F0"/>
<stop offset="1" stop-opacity="0"/>
</radialGradient>
<radialGradient id="paint4_radial_336_54" cx="0" cy="0" r="1" gradientUnits="userSpaceOnUse" gradientTransform="translate(1.5 39) rotate(-38.5584) scale(44.1192 188.385)">
<stop stop-color="#E6D58C"/>
<stop offset="0.193" stop-color="#D5723B"/>
<stop offset="1" stop-color="#312935"/>
</radialGradient>
<radialGradient id="paint5_radial_336_54" cx="0" cy="0" r="1" gradientUnits="userSpaceOnUse" gradientTransform="translate(37.0007 9.49911) rotate(146.31) scale(28.8444 39.4368)">
<stop stop-color="#EBF5EE"/>
<stop offset="0.245" stop-color="#4CC9BB"/>
<stop offset="1" stop-color="#4F5EAF"/>
</radialGradient>
<radialGradient id="paint6_radial_336_54" cx="0" cy="0" r="1" gradientUnits="userSpaceOnUse" gradientTransform="translate(9.5 2.5) rotate(52.507) scale(46.0027 196.428)">
<stop stop-color="#4CE0F0"/>
<stop offset="0.193" stop-color="#4C70F0"/>
<stop offset="1" stop-opacity="0"/>
</radialGradient>
<radialGradient id="paint7_radial_336_54" cx="0" cy="0" r="1" gradientUnits="userSpaceOnUse" gradientTransform="translate(1.5 39) rotate(-38.5584) scale(44.1192 188.385)">
<stop stop-color="#E6D58C"/>
<stop offset="0.193" stop-color="#D5723B"/>
<stop offset="1" stop-color="#312935"/>
</radialGradient>
<radialGradient id="paint8_radial_336_54" cx="0" cy="0" r="1" gradientUnits="userSpaceOnUse" gradientTransform="translate(37.0007 9.49911) rotate(146.31) scale(28.8444 39.4368)">
<stop stop-color="#EBF5EE"/>
<stop offset="0.245" stop-color="#4CC9BB"/>
<stop offset="1" stop-color="#4F5EAF"/>
</radialGradient>
<linearGradient id="paint9_linear_336_54" x1="-0.5" y1="17" x2="16.5" y2="23" gradientUnits="userSpaceOnUse">
<stop stop-color="#0046F9"/>
<stop offset="0.167" stop-color="#16DBF6"/>
<stop offset="0.278" stop-color="white"/>
<stop offset="0.416" stop-color="#FFE713"/>
<stop offset="0.552" stop-color="#FF7917"/>
<stop offset="0.692" stop-color="#FB0000"/>
<stop offset="0.828" stop-color="#B30000"/>
<stop offset="1" stop-color="#DCCDC4"/>
</linearGradient>
<linearGradient id="paint10_linear_336_54" x1="36.5" y1="30.5" x2="21.5" y2="23" gradientUnits="userSpaceOnUse">
<stop stop-color="#5CE0F2"/>
<stop offset="1" stop-opacity="0"/>
</linearGradient>
<clipPath id="clip0_336_54">
<rect width="40" height="40" fill="white" transform="translate(0 0.5)"/>
</clipPath>
</defs>
</svg>
