<svg width="59" height="39" viewBox="0 0 59 39" fill="none" xmlns="http://www.w3.org/2000/svg">
<g clip-path="url(#clip0_336_52)">
<path d="M11.72 0.897949C17.243 0.897949 21.72 5.37495 21.72 10.8979V28.3979C21.72 28.619 21.8078 28.831 21.9641 28.9873C22.1204 29.1436 22.3324 29.2314 22.5535 29.2314C22.7745 29.2314 22.9865 29.1436 23.1429 28.9873C23.2992 28.831 23.387 28.619 23.387 28.3979V10.8979C23.387 5.37495 27.864 0.897949 33.387 0.897949H46.72C53.164 0.897949 58.387 6.12095 58.387 12.5649V16.745C58.3868 19.5518 57.375 22.2646 55.537 24.3859L44.115 37.5649H30.882L47.98 17.8369L48.073 17.7189C48.277 17.4369 48.387 17.0959 48.387 16.7439V12.5639C48.387 11.6439 47.641 10.8979 46.72 10.8979H35.054V10.0649C35.054 9.84389 34.9662 9.63189 34.8099 9.47558C34.6535 9.31926 34.4415 9.23145 34.2205 9.23145C33.9994 9.23145 33.7874 9.31926 33.6311 9.47558C33.4748 9.63189 33.387 9.84389 33.387 10.0649V27.5649C33.387 33.0879 28.91 37.5649 23.387 37.5649H21.72C16.198 37.5649 11.72 33.0879 11.72 27.5649V10.0649C11.72 9.84402 11.6322 9.63215 11.476 9.47593C11.3198 9.31971 11.1079 9.23195 10.887 9.23195C10.6661 9.23195 10.4542 9.31971 10.298 9.47593C10.1417 9.63215 10.054 9.84402 10.054 10.0649V37.5649H0.0539856V10.8979C0.0539856 5.37495 4.53099 0.897949 10.054 0.897949H11.72Z" fill="#FC5800"/>
</g>
<defs>
<clipPath id="clip0_336_52">
<rect width="59" height="38" fill="white" transform="translate(0 0.5)"/>
</clipPath>
</defs>
</svg>
