<svg width="71" height="55" viewBox="0 0 71 55" fill="none" xmlns="http://www.w3.org/2000/svg">
<g clip-path="url(#clip0_336_67)">
<mask id="mask0_336_67" style="mask-type:luminance" maskUnits="userSpaceOnUse" x="0" y="0" width="71" height="55">
<path d="M0 0H71V55H0V0Z" fill="white"/>
</mask>
<g mask="url(#mask0_336_67)">
<path d="M62.883 50.1001C63.871 50.1001 64.406 50.8351 64.406 51.7431V53.4661H63.744V51.8501C63.744 51.2561 63.451 50.7351 62.836 50.7351C62.242 50.7351 61.942 51.2351 61.942 51.8371V53.4661H61.281V51.8361C61.281 51.2361 60.981 50.7351 60.372 50.7351C59.758 50.7351 59.484 51.2551 59.484 51.8501V53.4661H58.824V51.7501C58.824 50.8351 59.344 50.1001 60.326 50.1001C60.98 50.1001 61.454 50.4341 61.621 50.9421C61.801 50.4341 62.262 50.1011 62.883 50.1011V50.1001ZM56.498 52.9051C57.105 52.9051 57.439 52.3771 57.439 51.7701V50.1941H58.1V51.8501C58.1 52.7981 57.526 53.5461 56.498 53.5461C55.483 53.5461 54.908 52.7911 54.908 51.8431V50.1931H55.569V51.7771C55.569 52.3771 55.897 52.9051 56.498 52.9051ZM53.044 53.5391C52.436 53.5391 51.969 53.2991 51.714 52.8121L52.222 52.5321C52.389 52.8581 52.656 52.9791 53.017 52.9791C53.391 52.9791 53.678 52.8251 53.678 52.5381C53.678 51.8501 51.802 52.3711 51.802 51.1221C51.802 50.5481 52.309 50.1271 53.024 50.1271C53.631 50.1271 54.045 50.4071 54.252 50.7871L53.745 51.0761C53.605 50.7881 53.338 50.6881 53.037 50.6881C52.73 50.6881 52.463 50.8481 52.463 51.1081C52.463 51.7771 54.339 51.2881 54.339 52.5241C54.339 53.1441 53.739 53.5391 53.044 53.5391ZM48.505 54.9681H47.843V51.8231C47.843 50.8481 48.598 50.1131 49.586 50.1131C49.8127 50.1097 50.0378 50.1515 50.2482 50.236C50.4586 50.3204 50.6502 50.4458 50.8117 50.6049C50.9732 50.764 51.1015 50.9537 51.1891 51.1628C51.2767 51.3719 51.3219 51.5963 51.322 51.8231C51.322 52.8121 50.608 53.5461 49.612 53.5461C49.172 53.5461 48.772 53.3521 48.504 53.0591V54.9691L48.505 54.9681ZM49.586 52.9251C50.194 52.9251 50.661 52.4251 50.661 51.8301C50.661 51.2291 50.194 50.7421 49.586 50.7421C48.972 50.7421 48.505 51.2291 48.505 51.8301C48.505 52.4241 48.972 52.9251 49.586 52.9251ZM46.306 50.1941H46.966V53.4661H46.306V50.1941ZM55.223 47.2081C50.172 47.2081 46.319 43.3231 46.319 38.5951C46.319 33.9011 50.172 30.0151 55.223 30.0151C60.273 30.0151 64.127 33.9011 64.127 38.5951C64.127 43.3231 60.274 47.2081 55.223 47.2081ZM55.223 41.7361C57.068 41.7361 58.299 40.3111 58.299 38.6281C58.299 36.9121 57.069 35.4871 55.223 35.4871C53.377 35.4871 52.147 36.9121 52.147 38.6271C52.147 40.3111 53.377 41.7361 55.223 41.7361ZM35.314 54.6551C31.299 54.6551 28.384 52.8751 26.895 49.7011L31.72 47.1111C32.238 48.2111 33.21 49.3451 35.217 49.3451C37.321 49.3451 38.714 48.0171 38.876 45.6851C38.098 46.3651 36.868 46.8841 35.023 46.8841C30.522 46.8841 26.895 43.4201 26.895 38.5631C26.895 33.8681 30.749 30.0481 35.8 30.0481C40.98 30.0481 44.704 33.6421 44.704 38.5951V45.0051C44.704 50.8341 40.656 54.6551 35.314 54.6551ZM35.702 41.4121C37.451 41.4121 38.778 40.2141 38.778 38.4321C38.778 36.6851 37.451 35.5191 35.702 35.5191C33.986 35.5191 32.627 36.6851 32.627 38.4331C32.627 40.2131 33.987 41.4121 35.702 41.4121ZM17.009 47.2081C11.958 47.2081 8.105 43.3231 8.105 38.5951C8.105 33.9011 11.958 30.0151 17.009 30.0151C22.059 30.0151 25.913 33.9011 25.913 38.5951C25.913 43.3231 22.06 47.2081 17.009 47.2081ZM17.009 41.7361C18.854 41.7361 20.085 40.3111 20.085 38.6281C20.085 36.9121 18.855 35.4871 17.009 35.4871C15.163 35.4871 13.933 36.9121 13.933 38.6271C13.933 40.3111 15.163 41.7361 17.009 41.7361ZM0 23.0861H5.828V46.7221H0V23.0861ZM70.734 32.0001C70.734 32.5305 70.5233 33.0392 70.1482 33.4143C69.7731 33.7893 69.2644 34.0001 68.734 34.0001C68.2036 34.0001 67.6949 33.7893 67.3198 33.4143C66.9447 33.0392 66.734 32.5305 66.734 32.0001C66.734 31.4696 66.9447 30.9609 67.3198 30.5858C67.6949 30.2108 68.2036 30.0001 68.734 30.0001C69.2644 30.0001 69.7731 30.2108 70.1482 30.5858C70.5233 30.9609 70.734 31.4696 70.734 32.0001Z" fill="#9ED2E6"/>
<path fill-rule="evenodd" clip-rule="evenodd" d="M54.79 9.66502C60.5364 15.4113 63.9604 23.0758 64.406 31.19C62.7082 29.2029 60.4019 27.832 57.845 27.29C56.6799 21.9053 53.8954 17.0059 49.8652 13.2495C45.8351 9.49306 40.7523 7.05938 35.2991 6.27514C29.8459 5.4909 24.2833 6.39364 19.358 8.86217C14.4326 11.3307 10.3803 15.2469 7.74502 20.085H1.08502C3.19842 15.1147 6.49947 10.739 10.6985 7.34204C14.8975 3.94508 19.8661 1.63068 25.1682 0.601941C30.4704 -0.426795 35.944 -0.138416 41.1086 1.44177C46.2733 3.02196 50.9712 5.84564 54.79 9.66502Z" fill="#FFEBA3"/>
<path fill-rule="evenodd" clip-rule="evenodd" d="M50.547 13.9081C54.2145 17.5752 56.7481 22.221 57.845 27.2901C55.8183 26.8575 53.7159 26.9342 51.726 27.5131C50.4962 22.9642 47.7722 18.9612 43.992 16.1478C40.2119 13.3344 35.5953 11.8743 30.8849 12.0022C26.1744 12.1301 21.6439 13.8386 18.0219 16.8529C14.4 19.8672 11.8972 24.0122 10.916 28.6211C10.166 29.0531 9.46602 29.5661 8.82802 30.1511V20.0841H7.74402C9.75209 16.3973 12.5922 13.2296 16.0388 10.8326C19.4853 8.43555 23.4434 6.87525 27.5985 6.27562C31.7536 5.67598 35.9913 6.05354 39.975 7.37829C43.9586 8.70304 47.5785 10.9385 50.547 13.9071V13.9081Z" fill="#F5BD7A"/>
<path d="M46.306 30.8871C45.8462 27.6518 44.3425 24.6552 42.0235 22.3529C39.7045 20.0506 36.6971 18.5685 33.4586 18.1321C30.2201 17.6956 26.9276 18.3287 24.0819 19.935C21.2362 21.5413 18.9928 24.0329 17.693 27.0311C21.253 27.2231 24.363 28.9041 26.401 31.4421C28.573 28.7521 31.964 27.0461 35.801 27.0461C39.911 27.0461 43.442 28.8481 45.567 31.7841C45.798 31.4741 46.044 31.1741 46.306 30.8871Z" fill="#DB3D3D"/>
<path fill-rule="evenodd" clip-rule="evenodd" d="M51.725 27.5131C49.6436 28.121 47.7689 29.2883 46.305 30.8881C45.8449 27.6532 44.341 24.657 42.0221 22.355C39.7032 20.0531 36.6961 18.5712 33.4579 18.1348C30.2197 17.6984 26.9276 18.3313 24.082 19.9372C21.2365 21.5432 18.9931 24.0344 17.693 27.0321C17.4652 27.02 17.2371 27.014 17.009 27.0141C14.772 27.0141 12.692 27.6001 10.916 28.6211C11.898 24.0128 14.4011 19.8687 18.023 16.855C21.6449 13.8414 26.175 12.1333 30.8849 12.0054C35.5949 11.8775 40.211 13.3373 43.9911 16.15C47.7711 18.9627 50.4954 22.9649 51.726 27.5131H51.725Z" fill="#E77E7E"/>
</g>
</g>
<defs>
<clipPath id="clip0_336_67">
<rect width="71" height="55" fill="white"/>
</clipPath>
</defs>
</svg>
