<svg width="180" height="180" viewBox="0 0 180 180" fill="none" xmlns="http://www.w3.org/2000/svg">
<g clip-path="url(#clip0_169_3479)">
<path d="M0 0H180V180H0V0Z" fill="url(#paint0_linear_169_3479)"/>
<path d="M80.3109 88.3828C80.587 88.649 80.7905 88.9814 80.902 89.3484C81.0135 89.7153 81.0293 90.1047 80.948 90.4795L78.6417 101.074L88.823 94.8333C89.1769 94.6144 89.5849 94.4986 90.001 94.499C90.4171 94.4994 90.8249 94.6159 91.1784 94.8354L101.286 101.061L99.0471 90.4479C98.9691 90.0776 98.9857 89.6935 99.0954 89.3313C99.2052 88.9692 99.4045 88.6405 99.675 88.3758L108.763 79.4791L96.9145 77.7691C96.5515 77.7164 96.2069 77.5759 95.9104 77.3599C95.6139 77.1439 95.3745 76.8589 95.213 76.5295L89.9796 65.8146L84.6225 76.5563C84.4611 76.8813 84.2232 77.1623 83.9293 77.3751C83.6353 77.5879 83.2942 77.7263 82.935 77.7783L71.1204 79.5038L80.3109 88.3828ZM73.1229 105.27L76.2841 90.7467L64.7009 79.5579C64.398 79.2658 64.1831 78.8947 64.0806 78.4867C63.9781 78.0787 63.992 77.65 64.1208 77.2495C64.2492 76.8493 64.4874 76.4931 64.8084 76.2218C65.1294 75.9504 65.5202 75.7746 65.9362 75.7146L81.1195 73.4941L87.9863 59.7263C88.3659 58.9613 89.0866 58.4346 90.0091 58.4796C90.4285 58.4824 90.8388 58.602 91.194 58.8249C91.5492 59.0478 91.8352 59.3653 92.0201 59.7417L98.7349 73.485L113.908 75.6788C114.324 75.7381 114.714 75.9127 115.035 76.1828C115.356 76.4529 115.595 76.8076 115.725 77.2066C115.856 77.6054 115.872 78.033 115.772 78.4407C115.672 78.8484 115.46 79.2199 115.159 79.5129L103.705 90.727L106.771 105.262C106.862 105.693 106.824 106.14 106.663 106.55C106.502 106.959 106.224 107.313 105.864 107.566C105.505 107.82 105.079 107.962 104.639 107.976C104.199 107.99 103.765 107.875 103.39 107.644L89.9979 99.3916L76.4979 107.667C76.122 107.898 75.6866 108.013 75.2458 107.998C74.805 107.984 74.3783 107.84 74.0187 107.584C73.6598 107.328 73.3837 106.973 73.2245 106.562C73.0653 106.151 73.03 105.701 73.1229 105.27ZM31.5 47.2978H148.5V36H31.5V47.2978ZM153 33.75V146.25C153 147.492 151.992 148.5 150.75 148.5H137.25V144H148.5V51.7992H31.5V144H117V148.5H29.25C28.6533 148.5 28.081 148.263 27.659 147.841C27.2371 147.419 27 146.847 27 146.25V33.75C27 33.1533 27.2371 32.581 27.659 32.159C28.081 31.7371 28.6533 31.5 29.25 31.5H150.75C151.992 31.5 153 32.5083 153 33.75ZM54 132.75H67.5V128.25H54V132.75ZM76.5 132.75H108V128.25H76.5V132.75ZM54 121.5H67.5V117H54V121.5ZM76.5 121.5H126V117H76.5V121.5Z" fill="white"/>
</g>
<defs>
<linearGradient id="paint0_linear_169_3479" x1="0" y1="18000" x2="18000" y2="0" gradientUnits="userSpaceOnUse">
<stop stop-color="#BD0816"/>
<stop offset="1" stop-color="#FF5252"/>
</linearGradient>
<clipPath id="clip0_169_3479">
<rect width="180" height="180" fill="white"/>
</clipPath>
</defs>
</svg>
